<?xml version="1.0" standalone="no"?>
<!DOCTYPE svg PUBLIC "-//W3C//DTD SVG 20010904//EN"
 "http://www.w3.org/TR/2001/REC-SVG-20010904/DTD/svg10.dtd">
<svg version="1.0" xmlns="http://www.w3.org/2000/svg"
 width="606.000000pt" height="606.000000pt" viewBox="0 0 606.000000 606.000000"
 preserveAspectRatio="xMidYMid meet">
<metadata>
Created by potrace 1.14, written by Peter Selinger 2001-2017
</metadata>
<g transform="translate(0.000000,606.000000) scale(0.100000,-0.100000)"
fill="#000000" stroke="none">
<path d="M888 4824 c-3 -2 -29 -6 -59 -9 -146 -15 -400 -107 -434 -158 -11
-17 -14 -47 -12 -116 3 -132 7 -133 182 -67 38 14 108 35 155 47 47 11 92 23
100 26 8 3 65 5 125 4 160 -2 204 -5 199 -13 -2 -3 9 -9 25 -13 47 -10 118
-61 145 -103 43 -69 58 -136 62 -289 l3 -142 -22 6 c-59 14 -127 26 -277 48
-47 8 -193 7 -265 0 -199 -20 -384 -125 -478 -270 -92 -142 -99 -395 -16 -555
71 -137 212 -232 379 -256 73 -10 295 2 295 16 0 1 11 3 25 6 28 4 38 9 123
48 76 34 170 104 161 118 -4 6 -3 8 4 4 6 -3 28 12 50 34 l39 41 14 -23 c8
-13 26 -45 39 -73 38 -75 99 -135 139 -135 33 0 91 27 91 42 0 4 5 8 11 8 19
0 108 70 114 90 4 12 -9 54 -34 110 -23 49 -41 97 -41 105 0 8 -4 15 -8 15
-10 0 -9 -28 -12 469 -3 444 -8 505 -46 629 -9 28 -21 52 -25 52 -5 0 -9 8 -9
18 0 10 -9 28 -20 40 -11 12 -20 25 -20 30 0 18 -102 104 -164 137 -36 20 -66
33 -66 29 0 -3 -6 -2 -12 3 -15 11 -84 30 -143 39 -49 8 -311 15 -317 8z
m-194 -162 c3 -5 -1 -9 -9 -9 -8 0 -12 4 -9 9 3 4 7 8 9 8 2 0 6 -4 9 -8z
m551 -1 c3 -5 2 -12 -3 -15 -5 -3 -9 1 -9 9 0 17 3 19 12 6z m409 -559 c3 -5
-1 -9 -9 -9 -8 0 -12 4 -9 9 3 4 7 8 9 8 2 0 6 -4 9 -8z m-90 -80 c3 -5 -1 -9
-9 -9 -8 0 -12 4 -9 9 3 4 7 8 9 8 2 0 6 -4 9 -8z m-640 -80 c3 -5 -1 -9 -9
-9 -8 0 -12 4 -9 9 3 4 7 8 9 8 2 0 6 -4 9 -8z m96 2 c0 -8 -19 -13 -24 -6 -3
5 1 9 9 9 8 0 15 -2 15 -3z m634 -2 c3 -5 -1 -9 -9 -9 -8 0 -12 4 -9 9 3 4 7
8 9 8 2 0 6 -4 9 -8z m-330 -80 c3 -5 -1 -9 -9 -9 -8 0 -12 4 -9 9 3 4 7 8 9
8 2 0 6 -4 9 -8z m-238 -41 c-6 -9 130 -24 145 -16 5 4 9 2 9 -3 0 -5 6 -9 13
-9 22 -2 72 -10 100 -18 l27 -7 -4 -107 c-3 -58 -12 -128 -21 -155 -15 -49
-71 -146 -84 -146 -3 0 -17 -10 -31 -23 -79 -72 -212 -115 -370 -119 -25 -1
-54 2 -65 7 -105 41 -139 68 -172 133 -28 56 -26 232 4 287 63 119 160 164
365 168 36 1 70 5 74 10 10 10 16 9 10 -2z m-626 -437 c0 -8 -19 -13 -24 -6
-3 5 1 9 9 9 8 0 15 -2 15 -3z m1104 -322 c3 -5 -1 -9 -9 -9 -8 0 -12 4 -9 9
3 4 7 8 9 8 2 0 6 -4 9 -8z"/>
<path d="M5008 4819 c-126 -20 -267 -80 -332 -141 -21 -21 -42 -38 -45 -38
-16 -1 -110 -145 -116 -177 -2 -10 -4 -18 -5 -18 -6 0 -12 -53 -15 -124 -2
-86 10 -161 27 -161 5 0 7 -4 3 -9 -5 -9 20 -72 37 -96 89 -120 171 -180 313
-230 28 -9 57 -20 65 -23 8 -3 24 -7 35 -9 11 -1 29 -7 40 -13 34 -16 125 -39
125 -32 0 4 4 2 8 -3 4 -6 27 -17 52 -23 53 -15 168 -71 191 -92 80 -77 90
-204 22 -291 -28 -36 -86 -79 -107 -79 -7 0 -16 -3 -20 -7 -7 -8 -8 -8 -94
-23 -64 -11 -181 -15 -217 -7 -11 2 -26 -1 -34 -7 -10 -7 -13 -7 -8 0 4 7 -21
15 -72 23 -44 6 -112 23 -152 37 -115 39 -113 39 -104 24 5 -9 4 -11 -4 -6 -6
4 -9 11 -6 15 8 14 -85 36 -104 24 -20 -13 -28 -162 -10 -205 12 -30 62 -72
73 -61 3 3 6 2 6 -3 0 -8 59 -36 80 -39 3 0 10 -3 15 -6 9 -6 47 -16 85 -24 8
-2 35 -8 58 -15 24 -6 53 -10 65 -9 12 1 33 -3 47 -8 14 -6 91 -10 180 -8 153
2 247 17 327 50 18 8 36 14 38 14 16 0 63 36 58 44 -3 6 -1 7 6 3 6 -4 24 0
39 10 41 26 152 143 152 159 0 8 3 15 8 15 4 0 13 12 19 28 35 79 45 125 49
212 3 81 0 105 -21 164 -13 37 -36 87 -51 110 -28 41 -102 116 -115 116 -4 0
-14 6 -21 13 -20 19 -147 78 -178 82 -3 0 -9 3 -15 6 -24 15 -127 39 -138 33
-7 -4 -8 -3 -4 1 8 9 -168 73 -210 77 -12 1 -20 4 -18 6 2 2 -23 17 -55 34
-32 16 -72 44 -89 63 -33 38 -55 103 -49 147 3 16 0 28 -6 28 -7 0 -7 3 -1 8
6 4 20 27 33 52 25 51 62 78 142 106 45 15 83 19 200 19 170 -1 214 -9 378
-71 60 -23 76 -25 97 -16 24 11 25 15 25 101 0 82 -2 92 -26 120 -23 27 -51
44 -119 71 -66 26 -210 57 -255 56 -17 -1 -30 2 -30 6 0 9 -193 7 -252 -3z
m399 -154 c0 -8 -4 -12 -9 -9 -5 3 -6 10 -3 15 9 13 12 11 12 -6z m-400 -10
c0 -8 -4 -12 -9 -9 -5 3 -6 10 -3 15 9 13 12 11 12 -6z m-240 -390 c0 -8 -4
-12 -9 -9 -5 3 -6 10 -3 15 9 13 12 11 12 -6z m158 -324 c3 -5 2 -12 -3 -15
-5 -3 -9 1 -9 9 0 17 3 19 12 6z m399 -159 c3 -5 -1 -9 -9 -9 -8 0 -12 4 -9 9
3 4 7 8 9 8 2 0 6 -4 9 -8z m330 -240 c3 -5 -1 -9 -9 -9 -8 0 -12 4 -9 9 3 4
7 8 9 8 2 0 6 -4 9 -8z m-889 -311 c3 -5 2 -12 -3 -15 -5 -3 -9 1 -9 9 0 17 3
19 12 6z m-240 -91 c3 -5 1 -10 -4 -10 -6 0 -11 5 -11 10 0 6 2 10 4 10 3 0 8
-4 11 -10z m565 -76 c0 -8 -19 -13 -24 -6 -3 5 1 9 9 9 8 0 15 -2 15 -3z"/>
<path d="M1914 4765 c-13 -9 -16 -22 -12 -52 5 -37 40 -163 58 -208 4 -11 13
-40 20 -65 12 -48 88 -295 97 -320 3 -8 7 -19 8 -25 7 -30 66 -227 80 -264 8
-25 18 -58 21 -75 3 -17 8 -35 13 -41 4 -5 13 -35 20 -65 8 -30 17 -59 21 -65
5 -5 9 -13 9 -17 1 -5 1 -9 2 -10 0 -2 2 -10 4 -18 3 -15 44 -154 91 -305 14
-44 29 -94 33 -112 29 -108 52 -121 211 -118 149 3 152 3 145 15 -3 5 0 7 8 4
20 -7 49 42 51 86 0 21 4 36 7 34 6 -3 31 97 35 136 1 8 4 22 7 30 5 12 54
212 72 294 2 11 9 39 15 61 6 22 13 51 15 65 3 14 7 34 10 45 2 11 5 25 6 30
1 6 5 20 10 33 5 12 11 33 13 45 8 37 13 58 41 174 15 62 23 118 19 124 -4 7
-3 9 3 6 6 -4 19 36 33 99 l24 106 13 -43 c7 -24 15 -53 17 -64 9 -43 18 -81
23 -95 3 -8 7 -24 9 -35 2 -19 97 -411 111 -465 4 -14 7 -29 8 -35 0 -5 4 -16
8 -22 5 -7 6 -13 3 -13 -2 0 0 -15 5 -32 6 -18 12 -44 15 -57 11 -56 75 -317
81 -331 3 -8 7 -22 8 -30 7 -58 30 -121 51 -141 23 -22 34 -23 157 -25 152 -1
178 7 203 64 9 20 17 42 18 47 2 8 23 80 31 105 1 3 4 12 8 20 6 15 61 191 62
200 0 3 9 29 19 58 10 29 15 60 12 68 -3 8 -2 12 4 9 6 -3 10 -3 11 2 1 14 7
35 44 153 20 63 38 120 39 125 2 6 6 17 9 25 3 8 22 69 43 135 20 66 54 174
75 240 21 66 56 181 79 255 23 74 46 145 51 158 13 33 11 89 -3 99 -7 4 -67 8
-133 9 -161 2 -178 -6 -205 -95 -18 -63 -49 -179 -55 -211 -2 -8 -4 -15 -5
-15 -1 0 -3 -7 -5 -15 -4 -21 -103 -404 -171 -660 -31 -118 -57 -222 -58 -230
-1 -8 -5 -22 -9 -30 -6 -14 -20 -70 -33 -130 -9 -42 -21 -43 -28 -3 -7 40 -20
97 -81 348 -20 83 -38 157 -40 165 -1 8 -5 32 -9 53 -4 21 -11 35 -16 32 -4
-3 -6 4 -3 15 3 11 2 28 -3 37 -4 10 -8 25 -9 33 -4 39 -49 219 -54 216 -3 -2
-7 12 -8 33 -1 39 -76 357 -95 405 -6 16 -24 34 -41 41 -41 17 -281 13 -303
-6 -27 -22 -29 -28 -94 -304 -45 -192 -44 -187 -53 -225 -14 -55 -47 -196 -51
-220 -3 -14 -5 -25 -6 -25 -1 0 -3 -7 -5 -15 -2 -8 -11 -46 -20 -85 -9 -38
-19 -79 -21 -90 -2 -11 -6 -31 -10 -45 -6 -27 -20 -91 -28 -128 -3 -12 -7 -25
-9 -30 -3 -4 -8 -23 -11 -42 -3 -19 -12 -59 -20 -88 -17 -61 -16 -58 -16 -77
0 -38 -17 -8 -33 58 -22 91 -20 84 -52 202 -33 125 -33 126 -34 148 -1 11 -6
15 -13 11 -6 -4 -8 -3 -4 4 3 5 -3 46 -13 89 -59 239 -116 459 -121 463 -3 3
-7 21 -8 40 -2 19 -8 40 -13 46 -5 7 -9 16 -7 20 1 5 -4 34 -12 64 -8 30 -15
58 -16 63 -1 4 -2 8 -4 10 -2 3 -7 23 -15 62 -9 45 -35 93 -53 101 -32 13
-280 13 -298 -1z m133 -110 c0 -8 -4 -12 -9 -9 -5 3 -6 10 -3 15 9 13 12 11
12 -6z m2077 7 c3 -5 -1 -9 -9 -9 -8 0 -12 4 -9 9 3 4 7 8 9 8 2 0 6 -4 9 -8z
m-879 -311 c3 -5 2 -12 -3 -15 -5 -3 -9 1 -9 9 0 17 3 19 12 6z m-400 -240 c3
-5 2 -12 -3 -15 -5 -3 -9 1 -9 9 0 17 3 19 12 6z m445 -87 c0 -8 -19 -13 -24
-6 -3 5 1 9 9 9 8 0 15 -2 15 -3z m-1080 -80 c0 -8 -19 -13 -24 -6 -3 5 1 9 9
9 8 0 15 -2 15 -3z m637 -79 c0 -8 -4 -12 -9 -9 -5 3 -6 10 -3 15 9 13 12 11
12 -6z m-397 -241 c0 -8 -19 -13 -24 -6 -3 5 1 9 9 9 8 0 15 -2 15 -3z m957
-9 c0 -8 -4 -12 -9 -9 -5 3 -6 10 -3 15 9 13 12 11 12 -6z m-3 -153 c3 -5 -1
-9 -9 -9 -8 0 -12 4 -9 9 3 4 7 8 9 8 2 0 6 -4 9 -8z m-1024 -78 c0 -8 -19
-13 -24 -6 -3 5 1 9 9 9 8 0 15 -2 15 -3z m1114 -162 c3 -5 -1 -9 -9 -9 -8 0
-12 4 -9 9 3 4 7 8 9 8 2 0 6 -4 9 -8z m-960 -80 c3 -5 -1 -9 -9 -9 -8 0 -12
4 -9 9 3 4 7 8 9 8 2 0 6 -4 9 -8z"/>
<path d="M5470 2563 c-14 -2 -52 -8 -85 -14 -33 -6 -73 -13 -90 -16 -58 -10
-218 -73 -287 -113 -70 -42 -96 -75 -84 -106 6 -15 17 -16 94 -10 48 4 101 9
117 11 127 17 384 24 477 12 64 -8 134 -40 149 -68 39 -73 -11 -291 -142 -629
-27 -69 -49 -133 -49 -142 0 -29 45 -33 84 -9 38 24 135 130 184 203 159 234
272 681 201 797 -34 55 -193 90 -409 88 -74 0 -146 -2 -160 -4z"/>
<path d="M26 2464 c-32 -31 -19 -59 57 -129 320 -298 764 -583 1202 -772 184
-80 506 -188 645 -218 8 -2 55 -13 104 -25 50 -12 113 -26 140 -30 28 -5 65
-12 81 -15 42 -7 84 -14 130 -20 22 -3 51 -8 65 -10 92 -16 211 -20 560 -20
217 0 420 3 450 7 30 4 73 10 95 12 39 5 53 7 165 26 168 29 180 31 307 61
518 122 1012 338 1380 602 105 76 128 127 78 181 -22 24 -34 29 -76 29 -9 0
-81 -26 -160 -58 -245 -98 -537 -193 -799 -260 -73 -18 -373 -80 -435 -89 -23
-4 -52 -8 -65 -11 -40 -8 -215 -30 -305 -39 -224 -22 -318 -27 -560 -27 -226
-1 -342 5 -570 27 -220 21 -373 44 -621 95 -594 122 -1173 337 -1690 630 -127
72 -152 79 -178 53z"/>
</g>
</svg>
